<svg xmlns="http://www.w3.org/2000/svg" viewBox="1 1 22 22"><path d="M20.13 10.75h-1.25V3.39A1.39 1.39 0 0017.49 2H9.08a1.39 1.39 0 00-1.39 1.39V6H3.87A1.91 1.91 0 002 7.86v12.22A1.92 1.92 0 003.87 22h16.26a1.92 1.92 0 001.92-1.92v-7.42a1.91 1.91 0 00-1.92-1.91zM7.33 20H4V8h3.33zm9.55 0h-2.53v-3h-2v3H9.69V4h7.19zm3.17 0h-1.12v-7.25h1.12z"/><path d="M4.64 16h2v2h-2zM4.64 12.97h2v2h-2zM4.64 9.96h2v2h-2zM10.96 13.49h2v2h-2zM10.96 9.47h2v2h-2zM10.96 5.46h2v2h-2zM13.61 13.48h2v2h-2zM13.61 9.46h2v2h-2zM13.61 5.45h2v2h-2z"/></svg>