<svg xmlns="http://www.w3.org/2000/svg" viewBox="1 1 22 22"><path d="M20.19 2H3.81A1.81 1.81 0 002 3.81v16.38A1.81 1.81 0 003.81 22h16.38A1.81 1.81 0 0022 20.19V3.81A1.81 1.81 0 0020.19 2zm-12 17.27a.52.52 0 01-.53.52H5.42a.52.52 0 01-.52-.52v-9.4a.52.52 0 01.52-.52h2.24a.52.52 0 01.53.52zM6.54 8.46a2.13 2.13 0 112.13-2.13 2.13 2.13 0 01-2.13 2.13zM19.9 19.31a.48.48 0 01-.48.48H17a.47.47 0 01-.48-.48V14.9c0-.65.19-2.88-1.72-2.88-1.47-.02-1.8 1.53-1.8 2.21v5.08a.48.48 0 01-.49.48h-2.35a.48.48 0 01-.49-.48V9.83a.49.49 0 01.49-.48h2.32a.49.49 0 01.49.48v.82a3.3 3.3 0 013.1-1.46c3.85 0 3.83 3.6 3.83 5.57v4.55z"/></svg>